{"extensionsUsed" : ["KHR_materials_ior", "KHR_materials_specular"], "accessors" : [{"bufferView" : 0, "byteOffset" : 0, "componentType" : 5123, "count" : 618, "type" : "SCALAR", "max" : [495], "min" : [0]}, {"bufferView" : 1, "byteOffset" : 0, "componentType" : 5126, "count" : 496, "type" : "VEC3", "max" : [0.05108530446887016, 1.7445878982543945, 0.1089102029800415], "min" : [0.012190375477075577, 1.7057524919509888, 0.08957942575216293], "name" : "POSITION"}, {"bufferView" : 1, "byteOffset" : 12, "componentType" : 5126, "count" : 496, "type" : "VEC2", "max" : [0.9646214246749878, 1.9818061590194702], "min" : [0.019903719425201416, 1.0209906101226807], "name" : "TEXCOORD_0"}, {"bufferView" : 1, "byteOffset" : 20, "componentType" : 5126, "count" : 496, "type" : "VEC3", "max" : [0.9406006932258606, 0.9512309432029724, 1.0000042915344238], "min" : [-0.9471116065979004, -0.9485120177268982, -1.0000042915344238], "name" : "NORMAL"}, {"bufferView" : 0, "byteOffset" : 1236, "componentType" : 5123, "count" : 618, "type" : "SCALAR", "max" : [500], "min" : [0]}, {"bufferView" : 2, "byteOffset" : 0, "componentType" : 5126, "count" : 501, "type" : "VEC3", "max" : [-0.012463144026696682, 1.744627594947815, 0.1089102253317833], "min" : [-0.051203444600105286, 1.7057123184204102, 0.08957946300506592], "name" : "POSITION"}, {"bufferView" : 2, "byteOffset" : 12, "componentType" : 5126, "count" : 501, "type" : "VEC2", "max" : [0.9585750699043274, 1.966354489326477], "min" : [0.006885886192321777, 1.022762417793274], "name" : "TEXCOORD_0"}, {"bufferView" : 2, "byteOffset" : 20, "componentType" : 5126, "count" : 501, "type" : "VEC3", "max" : [0.9310468435287476, 0.9478710293769836, 1.0000042915344238], "min" : [-0.9491647481918335, -0.9364743232727051, -1.0000042915344238], "name" : "NORMAL"}, {"bufferView" : 0, "byteOffset" : 2472, "componentType" : 5123, "count" : 12282, "type" : "SCALAR", "max" : [9739], "min" : [0]}, {"bufferView" : 3, "byteOffset" : 0, "componentType" : 5126, "count" : 9740, "type" : "VEC3", "max" : [0.09579431265592575, 1.8330844640731812, 0.14321014285087585], "min" : [-0.09610731154680252, 1.5206061601638794, -0.08657769858837128], "name" : "POSITION"}, {"bufferView" : 3, "byteOffset" : 12, "componentType" : 5126, "count" : 9740, "type" : "VEC2", "max" : [0.9943000078201294, 1.9807000160217285], "min" : [0.004999999888241291, 1.004349946975708], "name" : "TEXCOORD_0"}, {"bufferView" : 3, "byteOffset" : 20, "componentType" : 5126, "count" : 9740, "type" : "VEC3", "max" : [0.9992218613624573, 0.9998693466186523, 0.9999847412109375], "min" : [-0.9992175102233887, -0.9999938011169434, -0.9999959468841553], "name" : "NORMAL"}, {"bufferView" : 0, "byteOffset" : 27036, "componentType" : 5123, "count" : 300, "type" : "SCALAR", "max" : [241], "min" : [0]}, {"bufferView" : 4, "byteOffset" : 0, "componentType" : 5126, "count" : 242, "type" : "VEC3", "max" : [0.028623221442103386, 1.6747605800628662, 0.1234879344701767], "min" : [-0.028623221442103386, 1.6380783319473267, 0.054925255477428436], "name" : "POSITION"}, {"bufferView" : 4, "byteOffset" : 12, "componentType" : 5126, "count" : 242, "type" : "VEC2", "max" : [0.9808249473571777, 1.9832134246826172], "min" : [0.051069796085357666, 1.028295874595642], "name" : "TEXCOORD_0"}, {"bufferView" : 4, "byteOffset" : 20, "componentType" : 5126, "count" : 242, "type" : "VEC3", "max" : [0.9971882700920105, 0.8775893449783325, 0.9974808692932129], "min" : [-0.9971882700920105, -0.9858413934707642, -0.7650182843208313], "name" : "NORMAL"}, {"bufferView" : 0, "byteOffset" : 27636, "componentType" : 5123, "count" : 1164, "type" : "SCALAR", "max" : [908], "min" : [0]}, {"bufferView" : 5, "byteOffset" : 0, "componentType" : 5126, "count" : 909, "type" : "VEC3", "max" : [0.07567635178565979, 1.8431962728500366, 0.12170601636171341], "min" : [-0.07567635178565979, 1.7478511333465576, -0.1253979653120041], "name" : "POSITION"}, {"bufferView" : 5, "byteOffset" : 12, "componentType" : 5126, "count" : 909, "type" : "VEC3", "max" : [0.9743879437446594, 0.9995540976524353, 0.9295295476913452], "min" : [-0.9583077430725098, -0.9982975125312805, -0.9851689338684082], "name" : "NORMAL"}, {"bufferView" : 5, "byteOffset" : 24, "componentType" : 5126, "count" : 909, "type" : "VEC2", "max" : [0.9951696991920471, 1.9950000047683716], "min" : [0.004999999888241291, 1.0049999952316284], "name" : "TEXCOORD_0"}, {"bufferView" : 0, "byteOffset" : 29964, "componentType" : 5123, "count" : 2964, "type" : "SCALAR", "max" : [2424], "min" : [0]}, {"bufferView" : 6, "byteOffset" : 0, "componentType" : 5126, "count" : 2425, "type" : "VEC3", "max" : [0.08215083926916122, 1.734890103340149, 0.12690681219100952], "min" : [-0.08215083926916122, 1.6978790760040283, -0.00420769676566124], "name" : "POSITION"}, {"bufferView" : 6, "byteOffset" : 12, "componentType" : 5126, "count" : 2425, "type" : "VEC3", "max" : [0.9967353343963623, 0.9990385174751282, 0.9991433620452881], "min" : [-0.9967353343963623, -0.9997580051422119, -0.9998177289962769], "name" : "NORMAL"}, {"bufferView" : 6, "byteOffset" : 24, "componentType" : 5126, "count" : 2425, "type" : "VEC2", "max" : [0.999171257019043, 1.9999635219573975], "min" : [-0.0009008646011352539, 1.000036358833313], "name" : "TEXCOORD_0"}, {"bufferView" : 0, "byteOffset" : 35892, "componentType" : 5123, "count" : 17289, "type" : "SCALAR", "max" : [13941], "min" : [0]}, {"bufferView" : 7, "byteOffset" : 0, "componentType" : 5126, "count" : 13942, "type" : "VEC3", "max" : [0.4974687695503235, 1.6960620880126953, 0.1905447542667389], "min" : [-0.49746832251548767, 0.9202250242233276, -0.2082977443933487], "name" : "POSITION"}, {"bufferView" : 7, "byteOffset" : 12, "componentType" : 5126, "count" : 13942, "type" : "VEC3", "max" : [0.9984071254730225, 0.99994957447052, 0.9998842477798462], "min" : [-0.9983869791030884, -0.9999199509620667, -0.9999545812606812], "name" : "NORMAL"}, {"bufferView" : 7, "byteOffset" : 24, "componentType" : 5126, "count" : 13942, "type" : "VEC4", "max" : [1.0000044107437134, 0.975484311580658, 0.9993155598640442, 1], "min" : [-1.0000044107437134, -0.9700865149497986, -0.9997836351394653, -1], "name" : "TANGENT"}, {"bufferView" : 7, "byteOffset" : 40, "componentType" : 5126, "count" : 13942, "type" : "VEC2", "max" : [0.9922528862953186, 1.9884485006332397], "min" : [0.013227399438619614, 1.0077776908874512], "name" : "TEXCOORD_0"}, {"bufferView" : 0, "byteOffset" : 70472, "componentType" : 5123, "count" : 3588, "type" : "SCALAR", "max" : [2935], "min" : [0]}, {"bufferView" : 8, "byteOffset" : 0, "componentType" : 5126, "count" : 2936, "type" : "VEC3", "max" : [0.19396866858005524, 1.1000725030899048, 0.13746197521686554], "min" : [-0.19330424070358276, 0.21727271378040314, -0.12750980257987976], "name" : "POSITION"}, {"bufferView" : 8, "byteOffset" : 12, "componentType" : 5126, "count" : 2936, "type" : "VEC3", "max" : [0.996721625328064, 0.9986997842788696, 0.9997483491897583], "min" : [-0.9967327117919922, -0.9977914094924927, -0.9994213581085205], "name" : "NORMAL"}, {"bufferView" : 8, "byteOffset" : 24, "componentType" : 5126, "count" : 2936, "type" : "VEC4", "max" : [0.9999589920043945, 0.6673733592033386, 0.9999009966850281, 1], "min" : [-0.9999842047691345, -0.5926982164382935, -0.9999646544456482, 1], "name" : "TANGENT"}, {"bufferView" : 8, "byteOffset" : 40, "componentType" : 5126, "count" : 2936, "type" : "VEC2", "max" : [0.9872710108757019, 1.9939689636230469], "min" : [0.01570899970829487, 1.0070810317993164], "name" : "TEXCOORD_0"}, {"bufferView" : 0, "byteOffset" : 77648, "componentType" : 5123, "count" : 5766, "type" : "SCALAR", "max" : [4679], "min" : [0]}, {"bufferView" : 9, "byteOffset" : 0, "componentType" : 5126, "count" : 4680, "type" : "VEC3", "max" : [0.24394118785858154, 0.20369914174079895, 0.21228736639022827], "min" : [-0.24396277964115143, -0.012048747390508652, -0.13425061106681824], "name" : "POSITION"}, {"bufferView" : 9, "byteOffset" : 12, "componentType" : 5126, "count" : 4680, "type" : "VEC3", "max" : [0.9978635907173157, 0.9999992847442627, 0.9994972348213196], "min" : [-0.9978635907173157, -0.9999164342880249, -0.999566376209259], "name" : "NORMAL"}, {"bufferView" : 9, "byteOffset" : 24, "componentType" : 5126, "count" : 4680, "type" : "VEC4", "max" : [1.0000044107437134, 0.9997474551200867, 0.9994264841079712, 1], "min" : [-0.9988114237785339, -0.9993494749069214, -0.9813571572303772, -1], "name" : "TANGENT"}, {"bufferView" : 9, "byteOffset" : 40, "componentType" : 5126, "count" : 4680, "type" : "VEC2", "max" : [0.9938750267028809, 1.9925909042358398], "min" : [0.006190999876707792, 1.0089333057403564], "name" : "TEXCOORD_0"}, {"bufferView" : 0, "byteOffset" : 89180, "componentType" : 5123, "count" : 17448, "type" : "SCALAR", "max" : [13985], "min" : [0]}, {"bufferView" : 10, "byteOffset" : 0, "componentType" : 5126, "count" : 13986, "type" : "VEC3", "max" : [0.5295923948287964, 1.349124550819397, 0.15004253387451172], "min" : [-0.5296163558959961, 0.07699808478355408, -0.11161962896585464], "name" : "POSITION"}, {"bufferView" : 10, "byteOffset" : 12, "componentType" : 5126, "count" : 13986, "type" : "VEC3", "max" : [0.9989653825759888, 0.8557983040809631, 0.9980459809303284], "min" : [-0.9989653825759888, -0.9993655681610107, -0.9886987805366516], "name" : "NORMAL"}, {"bufferView" : 10, "byteOffset" : 24, "componentType" : 5126, "count" : 13986, "type" : "VEC2", "max" : [0.9905531406402588, 1.9527735710144043], "min" : [0.009567409753799438, 1.1264448165893555], "name" : "TEXCOORD_0"}], "asset" : {"generator" : "Aspose.3D 24.1.0", "version" : "2.0"}, "buffers" : [{"uri" : "data:application/octet-stream;base64,", "byteLength" : 2535592}], "bufferViews" : [{"buffer" : 0, "byteOffset" : 0, "byteLength" : 124076, "target" : 34963}, {"buffer" : 0, "byteOffset" : 124080, "byteLength" : 19776, "byteStride" : 32, "target" : 34962}, {"buffer" : 0, "byteOffset" : 143860, "byteLength" : 19776, "byteStride" : 32, "target" : 34962}, {"buffer" : 0, "byteOffset" : 163640, "byteLength" : 393024, "byteStride" : 32, "target" : 34962}, {"buffer" : 0, "byteOffset" : 556668, "byteLength" : 9600, "byteStride" : 32, "target" : 34962}, {"buffer" : 0, "byteOffset" : 566272, "byteLength" : 37248, "byteStride" : 32, "target" : 34962}, {"buffer" : 0, "byteOffset" : 603524, "byteLength" : 94848, "byteStride" : 32, "target" : 34962}, {"buffer" : 0, "byteOffset" : 698376, "byteLength" : 829872, "byteStride" : 48, "target" : 34962}, {"buffer" : 0, "byteOffset" : 1528252, "byteLength" : 172224, "byteStride" : 48, "target" : 34962}, {"buffer" : 0, "byteOffset" : 1700480, "byteLength" : 276768, "byteStride" : 48, "target" : 34962}, {"buffer" : 0, "byteOffset" : 1977252, "byteLength" : 558336, "byteStride" : 32, "target" : 34962}], "images" : [{"uri" : "data:image/jpeg;base64,"}, {"uri" : "data:image/jpeg;base64,"}, {"uri" : "data:image/jpeg;base64,"}, {"uri" : "data:image/jpeg;base64,"}, {"uri" : "data:image/jpeg;base64,"}, {"uri" : "data:image/png;base64,"}, {"uri" : "data:image/jpeg;base64,"}, {"uri" : "data:image/jpeg;base64,"}, {"uri" : "data:image/jpeg;base64,"}, {"uri" : "data:image/jpeg;base64,"}, {"uri" : "data:image/jpeg;base64,"}, {"uri" : "data:image/jpeg;base64,"}, {"uri" : "data:image/jpeg;base64,"}, {"uri" : "data:image/jpeg;base64,"}, {"uri" : "data:image/jpeg;base64,"}, {"uri" : "data:image/jpeg;base64,"}], "materials" : [{"name" : "Wolf3D_Eye", "pbrMetallicRoughness" : {"baseColorFactor" : [1, 1, 1, 1], "baseColorTexture" : {"index" : 0, "texCoord" : 0}, "metallicFactor" : 0, "roughnessFactor" : 1}, "emissiveFactor" : [0, 0, 0], "alphaMode" : "OPAQUE", "doubleSided" : false}, {"name" : "Wolf3D_Eye", "pbrMetallicRoughness" : {"baseColorFactor" : [1, 1, 1, 1], "baseColorTexture" : {"index" : 0, "texCoord" : 0}, "metallicFactor" : 0, "roughnessFactor" : 1}, "emissiveFactor" : [0, 0, 0], "alphaMode" : "OPAQUE", "doubleSided" : false}, {"name" : "Wolf3D_Skin", "pbrMetallicRoughness" : {"baseColorFactor" : [1, 1, 1, 1], "baseColorTexture" : {"index" : 1, "texCoord" : 0}, "metallicFactor" : 0, "roughnessFactor" : 0.699999988079071}, "emissiveFactor" : [0, 0, 0], "alphaMode" : "OPAQUE", "doubleSided" : false}, {"name" : "Wolf3D_Teeth", "pbrMetallicRoughness" : {"baseColorFactor" : [1, 1, 1, 1], "baseColorTexture" : {"index" : 2, "texCoord" : 0}, "metallicFactor" : 0, "roughnessFactor" : 1}, "emissiveFactor" : [0, 0, 0], "alphaMode" : "OPAQUE", "doubleSided" : true}, {"name" : "Wolf3D_Hair", "pbrMetallicRoughness" : {"baseColorFactor" : [1, 1, 1, 1], "baseColorTexture" : {"index" : 4, "texCoord" : 0}, "metallicFactor" : 0, "roughnessFactor" : 0.8964735269546509}, "normalTexture" : {"index" : 3, "texCoord" : 0, "scale" : 1}, "emissiveFactor" : [0, 0, 0], "alphaMode" : "OPAQUE", "doubleSided" : true}, {"name" : "Wolf3D_Glasses", "pbrMetallicRoughness" : {"baseColorFactor" : [1, 1, 1, 1], "baseColorTexture" : {"index" : 5, "texCoord" : 0}, "metallicFactor" : 0, "roughnessFactor" : 0.15000000596046448}, "emissiveFactor" : [0, 0, 0], "alphaMode" : "OPAQUE", "doubleSided" : false}, {"name" : "Wolf3D_Outfit_Top", "pbrMetallicRoughness" : {"baseColorFactor" : [1, 1, 1, 1], "baseColorTexture" : {"index" : 7, "texCoord" : 0}, "metallicFactor" : 1, "roughnessFactor" : 1, "metallicRoughnessTexture" : {"index" : 8, "texCoord" : 0}}, "normalTexture" : {"index" : 6, "texCoord" : 0, "scale" : 1}, "emissiveFactor" : [0, 0, 0], "alphaMode" : "OPAQUE", "doubleSided" : false}, {"name" : "Wolf3D_Outfit_Bottom", "pbrMetallicRoughness" : {"baseColorFactor" : [1, 1, 1, 1], "baseColorTexture" : {"index" : 10, "texCoord" : 0}, "metallicFactor" : 0.5, "roughnessFactor" : 1, "metallicRoughnessTexture" : {"index" : 11, "texCoord" : 0}}, "normalTexture" : {"index" : 9, "texCoord" : 0, "scale" : 1}, "emissiveFactor" : [0, 0, 0], "alphaMode" : "OPAQUE", "doubleSided" : false}, {"name" : "Wolf3D_Outfit_Footwear", "pbrMetallicRoughness" : {"baseColorFactor" : [1, 1, 1, 1], "baseColorTexture" : {"index" : 13, "texCoord" : 0}, "metallicFactor" : 1, "roughnessFactor" : 1, "metallicRoughnessTexture" : {"index" : 14, "texCoord" : 0}}, "normalTexture" : {"index" : 12, "texCoord" : 0, "scale" : 1}, "emissiveFactor" : [0, 0, 0], "alphaMode" : "OPAQUE", "doubleSided" : false}, {"name" : "Wolf3D_Body", "extensions" : {"KHR_materials_ior" : {"ior" : 1.4500000476837158}, "KHR_materials_specular" : {"specularColorFactor" : [2.3713576793670654, 2.3713576793670654, 2.3713576793670654]}}, "pbrMetallicRoughness" : {"baseColorFactor" : [1, 1, 1, 1], "baseColorTexture" : {"index" : 15, "texCoord" : 0}, "metallicFactor" : 0, "roughnessFactor" : 0.5527864098548889}, "emissiveFactor" : [0, 0, 0], "alphaMode" : "OPAQUE", "doubleSided" : true}], "meshes" : [{"primitives" : [{"attributes" : {"POSITION" : 1, "TEXCOORD_0" : 2, "NORMAL" : 3}, "indices" : 0, "material" : 0, "mode" : 4}]}, {"primitives" : [{"attributes" : {"POSITION" : 5, "TEXCOORD_0" : 6, "NORMAL" : 7}, "indices" : 4, "material" : 1, "mode" : 4}]}, {"primitives" : [{"attributes" : {"POSITION" : 9, "TEXCOORD_0" : 10, "NORMAL" : 11}, "indices" : 8, "material" : 2, "mode" : 4}]}, {"primitives" : [{"attributes" : {"POSITION" : 13, "TEXCOORD_0" : 14, "NORMAL" : 15}, "indices" : 12, "material" : 3, "mode" : 4}]}, {"primitives" : [{"attributes" : {"POSITION" : 17, "NORMAL" : 18, "TEXCOORD_0" : 19}, "indices" : 16, "material" : 4, "mode" : 4}]}, {"primitives" : [{"attributes" : {"POSITION" : 21, "NORMAL" : 22, "TEXCOORD_0" : 23}, "indices" : 20, "material" : 5, "mode" : 4}]}, {"primitives" : [{"attributes" : {"POSITION" : 25, "NORMAL" : 26, "TANGENT" : 27, "TEXCOORD_0" : 28}, "indices" : 24, "material" : 6, "mode" : 4}]}, {"primitives" : [{"attributes" : {"POSITION" : 30, "NORMAL" : 31, "TANGENT" : 32, "TEXCOORD_0" : 33}, "indices" : 29, "material" : 7, "mode" : 4}]}, {"primitives" : [{"attributes" : {"POSITION" : 35, "NORMAL" : 36, "TANGENT" : 37, "TEXCOORD_0" : 38}, "indices" : 34, "material" : 8, "mode" : 4}]}, {"primitives" : [{"attributes" : {"POSITION" : 40, "NORMAL" : 41, "TEXCOORD_0" : 42}, "indices" : 39, "material" : 9, "mode" : 4}]}], "nodes" : [{"mesh" : 0, "name" : "EyeLeft"}, {"mesh" : 1, "name" : "EyeRight"}, {"mesh" : 2, "name" : "Wolf3D_Head"}, {"mesh" : 3, "name" : "Wolf3D_Teeth"}, {"mesh" : 4, "name" : "Wolf3D_Hair"}, {"mesh" : 5, "name" : "Wolf3D_Glasses"}, {"mesh" : 6, "name" : "Wolf3D_Outfit_Top"}, {"mesh" : 7, "name" : "Wolf3D_Outfit_Bottom"}, {"mesh" : 8, "name" : "Wolf3D_Outfit_Footwear"}, {"mesh" : 9, "name" : "Wolf3D_Body"}, {"children" : [0, 1, 2, 3, 4, 5, 6, 7, 8, 9], "name" : "Armature"}], "samplers" : [{"magFilter" : 9728, "minFilter" : 9728, "wrapS" : 10497, "wrapT" : 10497}, {"magFilter" : 9728, "minFilter" : 9728, "wrapS" : 10497, "wrapT" : 10497}, {"magFilter" : 9729, "minFilter" : 9987, "wrapS" : 10497, "wrapT" : 10497}, {"magFilter" : 9729, "minFilter" : 9987, "wrapS" : 10497, "wrapT" : 10497}, {"magFilter" : 9728, "minFilter" : 9728, "wrapS" : 10497, "wrapT" : 10497}, {"magFilter" : 9728, "minFilter" : 9728, "wrapS" : 10497, "wrapT" : 10497}, {"magFilter" : 9729, "minFilter" : 9987, "wrapS" : 33071, "wrapT" : 33071}, {"magFilter" : 9729, "minFilter" : 9987, "wrapS" : 33071, "wrapT" : 33071}, {"magFilter" : 9729, "minFilter" : 9987, "wrapS" : 33071, "wrapT" : 33071}, {"magFilter" : 9729, "minFilter" : 9987, "wrapS" : 33071, "wrapT" : 33071}, {"magFilter" : 9729, "minFilter" : 9987, "wrapS" : 33071, "wrapT" : 33071}, {"magFilter" : 9729, "minFilter" : 9987, "wrapS" : 33071, "wrapT" : 33071}, {"magFilter" : 9729, "minFilter" : 9987, "wrapS" : 33071, "wrapT" : 33071}, {"magFilter" : 9729, "minFilter" : 9987, "wrapS" : 33071, "wrapT" : 33071}, {"magFilter" : 9729, "minFilter" : 9987, "wrapS" : 33071, "wrapT" : 33071}, {"magFilter" : 9728, "minFilter" : 9728, "wrapS" : 10497, "wrapT" : 10497}], "scene" : 0, "scenes" : [{"nodes" : [10]}], "textures" : [{"sampler" : 0, "source" : 0, "name" : ""}, {"sampler" : 1, "source" : 1, "name" : ""}, {"sampler" : 2, "source" : 2, "name" : ""}, {"sampler" : 3, "source" : 3, "name" : ""}, {"sampler" : 4, "source" : 4, "name" : ""}, {"sampler" : 5, "source" : 5, "name" : ""}, {"sampler" : 6, "source" : 6, "name" : ""}, {"sampler" : 7, "source" : 7, "name" : ""}, {"sampler" : 8, "source" : 8, "name" : ""}, {"sampler" : 9, "source" : 9, "name" : ""}, {"sampler" : 10, "source" : 10, "name" : ""}, {"sampler" : 11, "source" : 11, "name" : ""}, {"sampler" : 12, "source" : 12, "name" : ""}, {"sampler" : 13, "source" : 13, "name" : ""}, {"sampler" : 14, "source" : 14, "name" : ""}, {"sampler" : 15, "source" : 15, "name" : ""}]}